<?xml version="1.0" encoding="UTF-8" standalone="no"?>
<!DOCTYPE svg PUBLIC "-//W3C//DTD SVG 1.1//EN"
 "http://www.w3.org/Graphics/SVG/1.1/DTD/svg11.dtd">
<!-- Generated by graphviz version 9.0.0 (20230911.1827)
 -->
<!-- Title: G Pages: 1 -->
<svg width="172pt" height="550pt"
 viewBox="0.00 0.00 172.37 549.80" xmlns="http://www.w3.org/2000/svg" xmlns:xlink="http://www.w3.org/1999/xlink">
<g id="graph0" class="graph" transform="scale(1 1) rotate(0) translate(4 545.8)">
<title>G</title>
<polygon fill="white" stroke="none" points="-4,4 -4,-545.8 168.37,-545.8 168.37,4 -4,4"/>
<!-- $ _ 0 1 0 -->
<g id="node1" class="node">
<title>$ _ 0 1 0</title>
<ellipse fill="none" stroke="black" cx="48.19" cy="-518.37" rx="44.19" ry="18"/>
<text text-anchor="middle" x="48.19" y="-513.32" font-family="Times,serif" font-size="14.00">$ _ 0 1 0</text>
</g>
<!-- $ _ 0 1 0&#45;&gt;$ _ 0 1 0 -->
<g id="edge1" class="edge">
<title>$ _ 0 1 0&#45;&gt;$ _ 0 1 0</title>
<path fill="none" stroke="black" d="M92.34,-520.88C102.72,-520.67 110.37,-519.84 110.37,-518.37 110.37,-517.53 107.81,-516.89 103.65,-516.46"/>
<polygon fill="black" stroke="black" points="104.02,-512.98 93.85,-515.95 103.66,-519.97 104.02,-512.98"/>
<text text-anchor="middle" x="96.58" y="-524.07" font-family="Times,serif" font-size="14.00">S</text>
</g>
<!-- $ _ 0 1 0&#45;&gt;$ _ 0 1 0 -->
<g id="edge2" class="edge">
<title>$ _ 0 1 0&#45;&gt;$ _ 0 1 0</title>
<path fill="none" stroke="black" d="M91.08,-523.38C110.98,-523.93 128.37,-522.26 128.37,-518.37 128.37,-515.25 117.11,-513.55 102.35,-513.3"/>
<polygon fill="black" stroke="black" points="102.58,-509.8 92.6,-513.35 102.62,-516.8 102.58,-509.8"/>
<text text-anchor="middle" x="95.44" y="-510.09" font-family="Times,serif" font-size="14.00">L</text>
</g>
<!-- $ _ 0 1 0&#45;&gt;$ _ 0 1 0 -->
<g id="edge3" class="edge">
<title>$ _ 0 1 0&#45;&gt;$ _ 0 1 0</title>
<path fill="none" stroke="black" d="M89.55,-525.29C118.18,-527.38 146.37,-525.08 146.37,-518.37 146.37,-512.56 125.17,-510.05 100.87,-510.85"/>
<polygon fill="black" stroke="black" points="100.86,-507.35 91.06,-511.38 101.23,-514.34 100.86,-507.35"/>
<text text-anchor="middle" x="85.59" y="-528.5" font-family="Times,serif" font-size="14.00">L</text>
</g>
<!-- $ _ 0 1 0&#45;&gt;$ _ 0 1 0 -->
<g id="edge4" class="edge">
<title>$ _ 0 1 0&#45;&gt;$ _ 0 1 0</title>
<path fill="none" stroke="black" d="M88.07,-526.7C124.79,-530.89 164.37,-528.11 164.37,-518.37 164.37,-509.62 132.42,-506.49 99.3,-508.98"/>
<polygon fill="black" stroke="black" points="99.2,-505.47 89.58,-509.9 99.86,-512.44 99.2,-505.47"/>
<text text-anchor="middle" x="83.79" y="-513.43" font-family="Times,serif" font-size="14.00">R</text>
</g>
<!-- $ 0 0 1 0 -->
<g id="node2" class="node">
<title>$ 0 0 1 0</title>
<ellipse fill="none" stroke="black" cx="48.19" cy="-298.37" rx="44.19" ry="18"/>
<text text-anchor="middle" x="48.19" y="-293.32" font-family="Times,serif" font-size="14.00">$ 0 0 1 0</text>
</g>
<!-- $ _ 0 1 0&#45;&gt;$ 0 0 1 0 -->
<g id="edge5" class="edge">
<title>$ _ 0 1 0&#45;&gt;$ 0 0 1 0</title>
<path fill="none" stroke="black" d="M48.19,-500.12C48.19,-482 48.19,-452.68 48.19,-427.37 48.19,-427.37 48.19,-427.37 48.19,-389.37 48.19,-368.81 48.19,-345.6 48.19,-327.9"/>
<polygon fill="black" stroke="black" points="51.69,-328.14 48.19,-318.14 44.69,-328.14 51.69,-328.14"/>
<text text-anchor="middle" x="44.44" y="-425.82" font-family="Times,serif" font-size="14.00">S</text>
</g>
<!-- $ 1 0 1 0 -->
<g id="node3" class="node">
<title>$ 1 0 1 0</title>
<ellipse fill="none" stroke="black" cx="48.19" cy="-48.19" rx="44.19" ry="44.19"/>
<ellipse fill="none" stroke="black" cx="48.19" cy="-48.19" rx="48.19" ry="48.19"/>
<text text-anchor="middle" x="48.19" y="-43.14" font-family="Times,serif" font-size="14.00">$ 1 0 1 0</text>
</g>
<!-- $ 0 0 1 0&#45;&gt;$ 1 0 1 0 -->
<g id="edge6" class="edge">
<title>$ 0 0 1 0&#45;&gt;$ 1 0 1 0</title>
<path fill="none" stroke="black" d="M48.19,-280.12C48.19,-262 48.19,-232.68 48.19,-207.37 48.19,-207.37 48.19,-207.37 48.19,-169.37 48.19,-149.49 48.19,-127.77 48.19,-108.32"/>
<polygon fill="black" stroke="black" points="51.69,-108.37 48.19,-98.37 44.69,-108.37 51.69,-108.37"/>
<text text-anchor="middle" x="44.44" y="-205.84" font-family="Times,serif" font-size="14.00">S</text>
</g>
</g>
</svg>
