<?xml version="1.0" encoding="UTF-8" standalone="no"?>
<!DOCTYPE svg PUBLIC "-//W3C//DTD SVG 1.1//EN"
 "http://www.w3.org/Graphics/SVG/1.1/DTD/svg11.dtd">
<!-- Generated by graphviz version 9.0.0 (20230911.1827)
 -->
<!-- Title: G Pages: 1 -->
<svg width="125pt" height="234pt"
 viewBox="0.00 0.00 125.21 234.04" xmlns="http://www.w3.org/2000/svg" xmlns:xlink="http://www.w3.org/1999/xlink">
<g id="graph0" class="graph" transform="scale(1 1) rotate(0) translate(4 230.04)">
<title>G</title>
<polygon fill="white" stroke="none" points="-4,4 -4,-230.04 121.21,-230.04 121.21,4 -4,4"/>
<!-- $ 0 0 0 -->
<g id="node1" class="node">
<title>$ 0 0 0</title>
<ellipse fill="none" stroke="black" cx="44.19" cy="-208.04" rx="37.02" ry="18"/>
<text text-anchor="middle" x="44.19" y="-202.99" font-family="Times,serif" font-size="14.00">$ 0 0 0</text>
</g>
<!-- $ 0 0 0&#45;&gt;$ 0 0 0 -->
<g id="edge1" class="edge">
<title>$ 0 0 0&#45;&gt;$ 0 0 0</title>
<path fill="none" stroke="black" d="M79.11,-214.79C90.32,-214.72 99.21,-212.47 99.21,-208.04 99.21,-205.27 95.74,-203.36 90.4,-202.29"/>
<polygon fill="black" stroke="black" points="90.89,-198.82 80.62,-201.43 90.27,-205.79 90.89,-198.82"/>
</g>
<!-- $ 0 0 0&#45;&gt;$ 0 0 0 -->
<g id="edge2" class="edge">
<title>$ 0 0 0&#45;&gt;$ 0 0 0</title>
<path fill="none" stroke="black" d="M72.67,-219.8C94.72,-224.19 117.21,-220.28 117.21,-208.04 117.21,-197.91 101.78,-193.48 83.96,-194.75"/>
<polygon fill="black" stroke="black" points="83.61,-191.27 74.17,-196.08 84.55,-198.21 83.61,-191.27"/>
</g>
<!-- $ 0 0 0 _ -->
<g id="node2" class="node">
<title>$ 0 0 0 _</title>
<ellipse fill="none" stroke="black" cx="44.19" cy="-136.04" rx="44.19" ry="18"/>
<text text-anchor="middle" x="44.19" y="-130.99" font-family="Times,serif" font-size="14.00">$ 0 0 0 _</text>
</g>
<!-- $ 0 0 0&#45;&gt;$ 0 0 0 _ -->
<g id="edge3" class="edge">
<title>$ 0 0 0&#45;&gt;$ 0 0 0 _</title>
<path fill="none" stroke="black" d="M44.19,-189.74C44.19,-182.45 44.19,-173.77 44.19,-165.58"/>
<polygon fill="black" stroke="black" points="47.69,-165.66 44.19,-155.66 40.69,-165.66 47.69,-165.66"/>
</g>
<!-- $ 0 0 0 _&#45;&gt;$ 0 0 0 _ -->
<g id="edge4" class="edge">
<title>$ 0 0 0 _&#45;&gt;$ 0 0 0 _</title>
<path fill="none" stroke="black" d="M75.54,-149.07C91.76,-151.07 106.37,-146.73 106.37,-136.04 106.37,-127.94 97.98,-123.49 86.86,-122.68"/>
<polygon fill="black" stroke="black" points="86.95,-119.17 77.06,-122.97 87.16,-126.17 86.95,-119.17"/>
</g>
<!-- $ 0 0 1 -->
<g id="node3" class="node">
<title>$ 0 0 1</title>
<ellipse fill="none" stroke="black" cx="44.19" cy="-41.02" rx="37.02" ry="37.02"/>
<ellipse fill="none" stroke="black" cx="44.19" cy="-41.02" rx="41.02" ry="41.02"/>
<text text-anchor="middle" x="44.19" y="-35.97" font-family="Times,serif" font-size="14.00">$ 0 0 1</text>
</g>
<!-- $ 0 0 0 _&#45;&gt;$ 0 0 1 -->
<g id="edge5" class="edge">
<title>$ 0 0 0 _&#45;&gt;$ 0 0 1</title>
<path fill="none" stroke="black" d="M44.19,-117.55C44.19,-110.59 44.19,-102.2 44.19,-93.57"/>
<polygon fill="black" stroke="black" points="47.69,-93.71 44.19,-83.71 40.69,-93.71 47.69,-93.71"/>
</g>
</g>
</svg>
